<svg width="32" height="32" viewBox="0 0 32 32" fill="none" xmlns="http://www.w3.org/2000/svg">
<rect width="32" height="32" rx="16" fill="#F6FAFF"/>
<path fill-rule="evenodd" clip-rule="evenodd" d="M15.9993 12.3333C14.5265 12.3333 13.3326 13.5272 13.3326 14.9999C13.3326 16.4727 14.5265 17.6666 15.9993 17.6666C17.4721 17.6666 18.666 16.4727 18.666 14.9999C18.666 13.5272 17.4721 12.3333 15.9993 12.3333ZM14.666 14.9999C14.666 14.2635 15.2629 13.6666 15.9993 13.6666C16.7357 13.6666 17.3326 14.2635 17.3326 14.9999C17.3326 15.7363 16.7357 16.3333 15.9993 16.3333C15.2629 16.3333 14.666 15.7363 14.666 14.9999Z" fill="#4B9EFF"/>
<path fill-rule="evenodd" clip-rule="evenodd" d="M13.4505 9.33325C12.7242 9.33325 12.0549 9.72704 11.7022 10.362L9.1096 15.0286C8.77401 15.6327 8.77402 16.3672 9.1096 16.9712L11.7022 21.6379C12.0549 22.2728 12.7242 22.6666 13.4505 22.6666H18.5481C19.2744 22.6666 19.9437 22.2728 20.2964 21.6379L22.889 16.9712C23.2246 16.3672 23.2246 15.6327 22.889 15.0286L20.2964 10.362C19.9437 9.72704 19.2744 9.33325 18.5481 9.33325H13.4505ZM12.8677 11.0095C12.9853 10.7978 13.2084 10.6666 13.4505 10.6666H18.5481C18.7902 10.6666 19.0133 10.7978 19.1309 11.0095L21.7235 15.6762C21.8353 15.8775 21.8353 16.1223 21.7235 16.3237L20.0141 19.4005C19.7632 19.2548 19.4477 19.0807 19.0938 18.906C18.2402 18.4847 17.0584 18.0061 16.0032 17.9999C15.0202 17.9942 13.9321 18.3963 13.0989 18.7832C12.6639 18.9852 12.273 19.1954 11.9676 19.37L10.2751 16.3237C10.1633 16.1223 10.1633 15.8775 10.2751 15.6762L12.8677 11.0095ZM18.5037 20.1016C18.8362 20.2658 19.133 20.4302 19.3664 20.5663L19.1309 20.9903C19.0133 21.202 18.7902 21.3333 18.5481 21.3333H13.4505C13.2084 21.3333 12.9853 21.202 12.8677 20.9903L12.6151 20.5357C12.8953 20.375 13.2577 20.1796 13.6605 19.9925C14.4587 19.6219 15.322 19.3293 15.9954 19.3332C16.7263 19.3375 17.6742 19.6922 18.5037 20.1016Z" fill="#4B9EFF"/>
</svg>
